<svg xmlns="http://www.w3.org/2000/svg" viewBox="0 0 128 128" role="img" aria-label="불꽃 메달"><defs><linearGradient id="a" x2="1" y2="1"><stop stop-color="#ffcb61"/><stop offset="1" stop-color="#f05539"/></linearGradient></defs><path fill="#e95c4f" d="M37 4h20l11 35-19 11z"/><path fill="#ff9f45" d="M72 4h20L79 50 60 39z"/><circle cx="64" cy="76" r="45" fill="#ffdca0"/><circle cx="64" cy="76" r="37" fill="url(#a)"/><circle cx="64" cy="76" r="29" fill="#fff1ce"/><path fill="#ef6941" d="M65 43c5 13-3 15 7 25 5-4 5-8 5-10 18 26 4 45-14 45-17 0-24-17-17-30 2 9 8 11 9 11-4-16 1-27 10-41z"/><path fill="#ffbb49" d="M65 75c2 7-2 9 4 15 4 7-1 13-7 13-10 0-13-10-9-17 1 5 4 6 5 6-2-7 2-12 7-17z"/></svg>
